Coordinates
version=1
nRows=27
nColumns=12
inDegrees=yes

Units are S.I. units (second, meters, Newtons, ...)
Angles are in degrees

endheader
time	SC_y	SC_z	SC_x	AC_y	AC_z	AC_x	GH_y	GH_z	GH_yy	EL_x	PS_y
       0.0              -25.94          17.94          9.618          41.42          4.198          15.97         -85.26          75.18          89.26          48.35          151.7
   0.03486              -25.94          17.94          9.622          41.42          4.196          15.97         -85.24          75.18          89.22          48.35          151.7
   0.06972              -25.95          17.94          9.627          41.42          4.193          15.97         -85.22          75.19          89.19          48.36          151.7
    0.1046              -25.95          17.94          9.632          41.42           4.19          15.96          -85.2          75.19          89.16          48.36          151.7
    0.1394              -25.95          17.94          9.637          41.42          4.186          15.96         -85.18          75.19          89.12          48.36          151.7
    0.1743              -25.95          17.94          9.642          41.42          4.183          15.96         -85.16          75.19          89.08          48.36          151.7
    0.2092              -25.96          17.94          9.648          41.42          4.179          15.96         -85.14          75.19          89.04          48.37          151.6
     0.244              -25.96          17.94          9.654          41.42          4.175          15.96         -85.11          75.19           89.0          48.37          151.6
    0.2789              -25.96          17.94          9.661          41.42          4.171          15.96         -85.08           75.2          88.95          48.37          151.6
    0.3137              -25.97          17.94          9.668          41.42          4.166          15.96         -85.06           75.2           88.9          48.38          151.6
    0.3486              -25.97          17.94          9.675          41.41          4.161          15.95         -85.02           75.2          88.84          48.38          151.5
    0.3835              -25.98          17.94          9.683          41.41          4.155          15.95         -84.99           75.2          88.79          48.38          151.5
    0.4183              -25.98          17.94          9.692          41.41           4.15          15.95         -84.96          75.21          88.72          48.39          151.5
    0.4532              -25.99          17.94          9.702          41.41          4.143          15.95         -84.92          75.21          88.65          48.39          151.4
     0.488              -25.99          17.94          9.712          41.41          4.137          15.95         -84.87          75.21          88.58           48.4          151.4
    0.5229               -26.0          17.93          9.723          41.41          4.129          15.94         -84.83          75.22           88.5           48.4          151.3
    0.5578              -26.01          17.93          9.735           41.4          4.121          15.94         -84.78          75.22          88.41          48.41          151.3
    0.5926              -26.02          17.93          9.749           41.4          4.113          15.94         -84.73          75.22          88.32          48.42          151.2
    0.6275              -26.02          17.93          9.763           41.4          4.103          15.93         -84.67          75.23          88.21          48.42          151.2
    0.6623              -26.03          17.93          9.779           41.4          4.093          15.93          -84.6          75.23           88.1          48.43          151.1
    0.6972              -26.04          17.93          9.796          41.39          4.081          15.93         -84.53          75.24          87.97          48.44          151.0
    0.7321              -26.05          17.93          9.815          41.39          4.069          15.92         -84.45          75.24          87.84          48.45          151.0
    0.7669              -26.07          17.93          9.837          41.38          4.055          15.92         -84.37          75.25          87.68          48.46          150.9
    0.8018              -26.08          17.93           9.86          41.38          4.039          15.91         -84.27          75.26          87.52          48.47          150.8
    0.8366              -26.09          17.93          9.886          41.38          4.022          15.91         -84.16          75.27          87.33          48.49          150.7
    0.8715              -26.11          17.92          9.915          41.37          4.003           15.9         -84.05          75.28          87.12           48.5          150.6
    0.9064              -26.13          17.92          9.948          41.36          3.982          15.89         -83.91          75.29          86.89          48.52          150.5
